PathFileType	4	(X/Y/Z)	 s01c0402.trc
DataRate	CameraRate	NumFrames	NumMarkers	Units	OrigDataRate	OrigDataStartFrame	OrigNumFrames
200	200	5	48	mm	200	1	2000
Frame#	Time	racr			lacr			c7			jug			rlel			rdr			llel			ldr			s2			lic			ric			lasi			rasi			rpsi			lpsi			rgt			lgt			rth1			rth2			rth3			rth4			rlfc			rsh1			rsh2			rsh3			rsh4			rlmal			rmmal			rcal			rtoe			rmt5			lth1			lth2			lth4			lth3			llfc			lsh1			lsh2			lsh3			lsh4			llmal			lmmal			lcal			ltoe			lmt5			SBIKE			LBIKE			RBIKE			
		X1	Y1	Z1	X2	Y2	Z2	X3	Y3	Z3	X4	Y4	Z4	X5	Y5	Z5	X6	Y6	Z6	X7	Y7	Z7	X8	Y8	Z8	X9	Y9	Z9	X10	Y10	Z10	X11	Y11	Z11	X12	Y12	Z12	X13	Y13	Z13	X14	Y14	Z14	X15	Y15	Z15	X16	Y16	Z16	X17	Y17	Z17	X18	Y18	Z18	X19	Y19	Z19	X20	Y20	Z20	X21	Y21	Z21	X22	Y22	Z22	X23	Y23	Z23	X24	Y24	Z24	X25	Y25	Z25	X26	Y26	Z26	X27	Y27	Z27	X28	Y28	Z28	X29	Y29	Z29	X30	Y30	Z30	X31	Y31	Z31	X32	Y32	Z32	X33	Y33	Z33	X34	Y34	Z34	X35	Y35	Z35	X36	Y36	Z36	X37	Y37	Z37	X38	Y38	Z38	X39	Y39	Z39	X40	Y40	Z40	X41	Y41	Z41	X42	Y42	Z42	X43	Y43	Z43	X44	Y44	Z44	X45	Y45	Z45	X46	Y46	Z46	X47	Y47	Z47	X48	Y48	Z48	
1	0.0050	459.376989	1359.603039	-96.339245	461.877551	1341.604969	-430.978148	419.245132	1414.632201	-257.378591	445.834254	1259.404328	-256.632702	540.694397	1095.138210	-2.286816	709.516112	895.371190	-42.454633	521.478401	1073.154246	-523.883037	706.682880	899.898233	-451.308204	-70.811471	1140.458793	-236.999142	115.516164	1164.783413	-421.594671	97.388060	1127.586773	-90.428286	88.789319	1112.254375	-397.604567	119.548881	1077.818041	-118.950794	-38.007479	1173.095446	-183.305182	-48.323364	1186.880994	-287.397271	35.572323	1006.850504	-65.664494	32.692338	1048.282911	-455.147414	108.166016	891.137520	-52.299761	159.197455	825.948774	-57.206744	209.871649	752.337181	-71.750769	203.605256	859.306943	-68.458946	247.302921	653.067433	-96.177211	176.717960	557.434417	-62.334298	138.556117	482.766235	-65.521503	88.382719	408.474777	-78.111624	176.997202	461.547140	-106.949129	15.277105	303.461566	-96.802245	64.763352	313.058100	-175.532369	-36.051402	280.655088	-153.267782	224.680772	206.778524	-136.848631	115.953868	199.490393	-69.136975	136.649072	980.006830	-460.037851	225.489771	973.777048	-465.700724	230.925452	1027.769882	-455.770137	309.380196	959.306473	-453.286868	414.586990	895.226028	-432.052197	336.446658	813.790346	-451.920322	301.925740	734.639773	-442.404451	266.703136	657.976825	-424.706127	355.329487	714.738145	-417.544611	220.032710	538.366737	-404.054515	249.645326	549.734676	-322.229489	169.509730	498.432587	-362.618461	446.723614	491.255110	-371.472566	342.648051	465.109185	-436.676925	NaN	NaN	NaN	-12.380082	84.935844	-456.108183	-21.680438	81.007589	-55.726115	
2	0.0100	459.400791	1359.611002	-96.397576	461.876925	1341.571748	-431.020437	419.203367	1414.639625	-257.412190	445.821367	1259.445612	-256.674937	540.711345	1095.145790	-2.326473	709.508137	895.387290	-42.453086	521.471625	1073.170479	-523.878573	706.659838	899.902298	-451.323196	-70.834530	1140.471504	-237.027177	115.482669	1164.834247	-421.644272	97.361905	1127.561293	-90.467003	88.767326	1112.191916	-397.591892	119.509030	1077.811314	-118.901639	-38.614182	1172.666073	-183.373567	-48.169425	1186.102159	-287.961106	35.546553	1006.837033	-65.666538	32.638525	1048.272178	-455.175192	108.106443	891.152510	-52.270562	159.129316	825.954508	-57.182623	209.780616	752.343635	-71.711425	203.549982	859.300868	-68.436842	247.222814	653.048491	-96.132756	176.699787	557.380453	-62.300311	138.607036	482.642725	-65.496334	88.482891	408.365133	-78.092026	177.073890	461.507954	-106.926090	15.444449	303.297883	-96.797890	64.811497	312.933139	-175.560038	-35.853954	280.506329	-153.276558	224.866543	206.638260	-136.832906	116.126752	199.376495	-69.132869	136.644970	980.036208	-460.074435	225.454968	973.801490	-465.736834	230.924297	1027.831795	-455.808663	309.368932	959.375319	-453.313954	414.570840	895.364613	-432.100392	336.421774	813.920914	-451.936766	301.821414	734.839199	-442.428588	266.605352	658.144737	-424.710872	355.242576	714.881862	-417.522518	219.869006	538.534779	-404.048945	249.454398	549.915606	-322.224580	169.335503	498.646915	-362.606956	446.550902	491.380899	-371.461906	342.457164	465.272128	-436.661146	-225.004785	892.933910	-252.373752	-12.369964	84.925556	-456.114283	-21.667681	81.004353	-55.724302	
3	0.0150	459.420902	1359.613190	-96.456114	461.859797	1341.567604	-431.058360	419.150049	1414.663490	-257.452542	445.805642	1259.473061	-256.715618	540.707862	1095.166582	-2.366316	709.499002	895.371961	-42.471925	521.449596	1073.181604	-523.905383	706.646663	899.909958	-451.346889	-70.861649	1140.453506	-237.092540	115.454243	1164.784247	-421.705802	97.317891	1127.574363	-90.459265	88.737486	1112.136613	-397.584930	119.476917	1077.806431	-118.890790	-38.479557	1173.047773	-183.312219	-48.192600	1186.101860	-287.984878	35.496594	1006.864888	-65.644863	32.590653	1048.251977	-455.203735	108.034980	891.167866	-52.243805	159.073911	825.963121	-57.159769	209.708321	752.349338	-71.679830	203.488072	859.308245	-68.394851	247.155039	653.057678	-96.092995	176.714048	557.337662	-62.266964	138.659704	482.573714	-65.477557	88.589124	408.260763	-78.095254	177.116272	461.447360	-106.891827	15.606596	303.174227	-96.776719	64.930889	312.843499	-175.558725	-35.693443	280.381218	-153.279835	225.044779	206.513252	-136.815135	116.293371	199.246434	-69.113695	136.611065	980.041312	-460.103690	225.420964	973.820040	-465.772339	230.879993	1027.864670	-455.828927	309.355950	959.440447	-453.355078	414.557289	895.475134	-432.137630	336.367886	814.035147	-451.964679	301.747881	734.982765	-442.447865	266.507312	658.284899	-424.727208	355.163698	714.999701	-417.547534	219.729297	538.689618	-404.049991	249.268218	550.104234	-322.219370	169.179814	498.839939	-362.624358	446.401230	491.489177	-371.459658	342.304467	465.412175	-436.636381	-224.970704	892.913764	-252.439358	-12.368946	84.935615	-456.130280	-21.677599	80.995790	-55.736719	
4	0.0200	459.404731	1359.631809	-96.503314	461.479300	1341.019411	-431.030345	419.113359	1414.676686	-257.485622	445.815810	1259.498814	-256.750337	540.599834	1095.205028	-2.331097	709.509728	895.435493	-42.486861	521.418821	1073.172818	-523.927259	706.638298	899.922159	-451.375023	-70.894813	1140.470796	-237.131099	115.441105	1164.703908	-421.740316	97.433305	1127.781585	-90.137718	88.729912	1112.066895	-397.595179	119.605094	1077.847208	-118.866441	-38.600696	1173.121473	-183.279208	-48.962916	1186.322347	-287.620809	35.803609	1006.757672	-65.361518	32.635624	1048.158139	-455.230848	107.748278	891.599172	-51.935275	159.016217	825.989800	-57.107354	209.583979	752.302986	-71.805553	203.432945	858.518168	-68.856897	247.106883	653.056824	-96.039203	176.687969	557.297570	-62.229760	138.047383	481.955227	-65.629130	88.677438	408.174284	-78.062314	177.647413	461.167576	-106.241598	16.442601	302.392299	-96.908636	65.011986	312.731375	-175.568115	-35.624472	280.432890	-153.373602	225.178985	206.403968	-136.799941	116.460620	199.097632	-69.104071	136.583126	980.030681	-460.127097	225.387240	973.836342	-465.807618	230.931654	1027.916624	-455.843170	309.118242	959.636609	-453.567609	414.568673	895.537013	-432.145151	336.347497	814.122382	-451.976890	301.600027	735.347569	-442.278683	266.420936	658.430854	-424.742103	355.501282	714.997279	-418.885432	219.580943	539.486041	-403.550146	250.344354	550.728947	-321.394926	169.047291	498.994024	-362.638557	446.255712	491.611562	-371.455604	342.455546	465.581181	-436.678343	-224.934845	892.882344	-252.484439	-12.362924	84.941218	-456.116290	-21.684455	81.014383	-55.729593	
5	0.0250	459.508266	1359.647261	-96.555628	461.531443	1340.951785	-431.104978	419.146269	1414.819867	-257.509749	445.784000	1259.509784	-256.846208	540.655043	1095.187220	-2.290012	709.830882	895.449242	-42.584940	522.176707	1073.126825	-523.128460	706.634186	899.938369	-451.406904	-70.887836	1140.397160	-237.282373	115.447689	1164.045273	-421.943675	97.436916	1127.771394	-90.138806	88.742549	1111.984239	-397.620979	119.574051	1077.786625	-118.814902	-38.476317	1173.264135	-183.300669	-49.357733	1186.447274	-287.456253	35.881469	1006.654068	-65.145003	32.647033	1048.181381	-455.349094	107.701151	891.620941	-51.888098	158.883646	825.966083	-57.109477	209.544559	752.296342	-71.745063	203.396137	858.525828	-68.814392	246.957453	653.098529	-96.057365	176.717413	557.284091	-62.244064	138.210370	481.947342	-65.491393	88.744653	408.108633	-78.038813	177.383093	461.221286	-106.833356	16.557598	302.308433	-96.871612	65.121370	312.647488	-175.554756	-35.512500	280.319740	-153.333236	225.320665	206.327456	-136.817258	116.551565	199.003503	-69.148792	136.560454	980.005551	-460.145397	225.354287	973.846569	-465.842284	230.943872	1027.897035	-455.931053	308.276241	959.810177	-453.996953	414.555663	895.541780	-432.271717	336.327909	814.155500	-452.024948	301.566159	735.404637	-442.301623	266.234071	658.577132	-424.807699	355.429577	715.063603	-418.900183	219.508071	539.469352	-403.462822	250.227682	550.844353	-321.380926	168.936653	499.110829	-362.649840	446.077332	491.602913	-371.440441	342.299672	465.667334	-436.686603	-224.914101	892.865915	-252.520956	-12.308695	84.677310	-456.208688	-21.684179	80.918829	-55.613956	
